<svg xmlns="http://www.w3.org/2000/svg" viewBox="0 0 1366 482.08"><defs><style>.cls-1{fill:#ff5733;}</style></defs><title>5</title><g id="Logo_Web" data-name="Logo Web"><path class="cls-1" d="M94.33,377.26c-2.37-1-3.6-2.6-3.69-4.84a31.5,31.5,0,0,1,.69-7.44,103,103,0,0,1,7.1-20.29q4.65-9.85,10.39-19.54,9.57-15.64,19.27-30.9t19.27-30.9q5.47-8.93,11.21-17.68T169.78,228a42.9,42.9,0,0,0,2.46-4.65c.73-1.62,1.73-3.66,3-6.15a40.87,40.87,0,0,1-4.65,2.05,9.52,9.52,0,0,0-3,1.68,490.38,490.38,0,0,0-54.12,55.46,613.57,613.57,0,0,0-47.29,65.15,228.21,228.21,0,0,0-13.94,25.68q-6,13-12.31,26.06a81.74,81.74,0,0,0-4.37,13q-6.29,21.22-1.37,32.39T55,449.48a63.72,63.72,0,0,0,17.63-3.35,179,179,0,0,0,18.45-7.44,235.58,235.58,0,0,0,30.89-17.87Q137.26,410.4,152,399.6q36.63-25.68,71.35-54.72t68.89-61.8q23.22-22.33,45-46.16a500.58,500.58,0,0,0,41.14-51.74q4.38-6.33,8.34-12.84t7.79-13.22q7.38-13.77,8.2-25.31a36.24,36.24,0,0,0-4.1-20.48Q389,94,368.51,91.74a138.67,138.67,0,0,0-36.76.35,229.32,229.32,0,0,0-38.68,9,542.21,542.21,0,0,0-80.78,32Q172,152.8,131,174a15.08,15.08,0,0,0-4,2.42q-2.06,1.68-4.51,3.54c.73,2.48,2.19,3.85,4.37,4.09s4.28.56,6.29.93a8.75,8.75,0,0,1,4.92,2.61q1.91,2,.55,8.75c-.92.74-2,1.55-3.15,2.42a18.81,18.81,0,0,1-3.41,2,25.9,25.9,0,0,1-13,1.68A61,61,0,0,1,108,199.7q-5.75-2.23-7.93-8.94a15.86,15.86,0,0,1,.41-12.1,21.5,21.5,0,0,1,8.61-9.49q5.19-3,10.26-5.95t10.25-5.59q19.68-9.67,39.09-19.17t39.09-19.17q22.14-10.8,43.87-19.55t43.88-15.59a225.38,225.38,0,0,1,32.8-7.79q15.85-2.46,32.26-3.6,24.6-1.86,40.18,14,13.13,12,13.81,33.05T400.22,171a155.52,155.52,0,0,1-8.47,14.52q-4.65,7.08-9.29,13.77a548,548,0,0,1-35,44.3q-18.31,20.85-38,40.21-88.85,87.1-184,151.51-11.76,7.82-23.38,14.51A177,177,0,0,1,78.2,461.39a71.22,71.22,0,0,1-23.64,5.77,38.28,38.28,0,0,1-20.64-4.65q-13.4-7.45-12.57-29A129.35,129.35,0,0,1,27,402.21a209.21,209.21,0,0,1,12.71-31.65,565.64,565.64,0,0,1,36.77-64,497.91,497.91,0,0,1,45-57.7q18.85-20.84,38.54-38.71t39.91-35.74q4.92-4.47,8.61-2.6t2,8.56q-.82,3.34-2,7.26a37.61,37.61,0,0,1-3.14,7.26q-6.3,10.42-12.44,20.47t-12.71,20.1Q169,252.56,157.89,269.31t-21.73,33.87q-9.57,14.9-18.46,29.79a202.4,202.4,0,0,0-15.17,31.27,35.7,35.7,0,0,1-1.5,4.09,35.15,35.15,0,0,1-2.19,4.28c-.82,1.37-1.59,2.55-2.32,3.54S95.06,377.51,94.33,377.26Z"/><path class="cls-1" d="M447,307.65c-1.64,1.25-2.74,1.12-3.28-.37a23.29,23.29,0,0,1-1.1-3.72q-.54-4.85-2.87-7.26a9.82,9.82,0,0,0-5.46-3,17.14,17.14,0,0,0-7,.37,32,32,0,0,0-7.38,2.79,134.47,134.47,0,0,0-16.82,8.57,178.32,178.32,0,0,0-20.63,14.14q-5.47,4.11-12.85,10.43T355.26,343.2a144.76,144.76,0,0,0-12.44,14.71q-5.47,7.44-6.84,13.77c-.36,2.23.18,3.48,1.64,3.72a10.26,10.26,0,0,0,5.2-.74,174.17,174.17,0,0,0,29.93-17.13,247.5,247.5,0,0,0,29.11-23.82,79.45,79.45,0,0,0,9.84-11.17q4.65-6.33,10.39-13.4c1.28-1,2.42-1.12,3.42-.37a7,7,0,0,1,2.32,3.35,14.63,14.63,0,0,1,1.64,4.65,15.13,15.13,0,0,1,0,5.77q-1.37,5.22-3.14,10t-3.69,11.54a14.33,14.33,0,0,0-.27,6.15,7.17,7.17,0,0,0,1.91,3.72,7.78,7.78,0,0,0,3.55,1.86,17.78,17.78,0,0,0,4.38.56q9.84-1.12,18.86-3T469,349q8.88-2.6,18.32-5.77t20.64-6.88q10.66-3.36,22.14-7.82a151.91,151.91,0,0,1,21.32-6.7c1.1-.25,2.6-.62,4.51-1.12a50.13,50.13,0,0,1,5.61-1.12,14.06,14.06,0,0,1,4.51,0c1.18.25,1.5.88,1,1.87a40.82,40.82,0,0,1-6,6.7,19.26,19.26,0,0,1-4.92,3.35,51.83,51.83,0,0,1-9.16,4.09q-4.51,1.5-9.16,3.35-9,3-16.53,5.59t-14.9,5.21q-7.38,2.61-15.45,5.39t-18.18,6.15q-5.73,1.86-12.43,3.72t-13.13,3.54c-4.28,1.11-8.33,2.11-12.16,3s-7.2,1.56-10.11,2.05q-19.14,3.36-20.78-10.79c0-.75,0-2.05.14-3.91s.31-4.28.68-7.26q-8.75,6.33-17.22,12.84t-17.22,12.47c-4.38,2.74-8.71,5.21-13,7.45s-8.61,4.34-13,6.33a41.05,41.05,0,0,1-8.61,3,18.16,18.16,0,0,1-8.07.38,9.5,9.5,0,0,1-5.6-3.91,12.27,12.27,0,0,1-1.78-6.7,30.69,30.69,0,0,1,1.37-8.57,55.63,55.63,0,0,1,3.83-9.49,140.08,140.08,0,0,1,11.48-18.24q6-7.82,13.53-16t16.13-16q8.61-7.82,18.31-15.27a198.27,198.27,0,0,1,19.82-13.4,82.14,82.14,0,0,1,9.57-4.84q5.19-2.23,10-4.09a68.28,68.28,0,0,1,8.61-2.79,14.62,14.62,0,0,1,5.74-.56q14.48.75,15.31,17.87a25.37,25.37,0,0,1-1.23,7.63C452,302.25,450.06,304.92,447,307.65Z"/><path class="cls-1" d="M583.17,264.1q2.73-5.6,6.42-13.22t7.79-16.19q4.11-8.56,8.34-17.87T614.06,199q9.29-20.46,19.41-42.81a202.44,202.44,0,0,0,14.21-24.57q5.75-11.91,13.39-24.94,3.28-5.58,6-7.63a9.09,9.09,0,0,1,6.56-1.67c3.1.25,5,1.61,5.6,4.09s0,5.71-2,9.68q-6,11.91-13.8,26.8T647,169.54Q638.39,186.3,629.5,204T612,238.41q-8.61,16.76-16.27,31.83t-13.67,26.62q-5.46,10.42-10.25,20.84t-10.25,20.85a19.75,19.75,0,0,0-1.78,5.4c-.09,1.11,1.41-.06,4.52-3.54q7.38-7.44,14.76-15.08T594.37,311q5.75-5.21,11.76-9.86a71.63,71.63,0,0,1,12-7.63q10.11-5.22,14.08-2.05t3.14,15.07c-.18,2-.46,4-.82,6.15s-.64,4.16-.82,6.14V327a53,53,0,0,0,.55,7.82q.81,7.44,4.64,10.61t10.94.55q7.1-3,14.9-6.14T680.48,333q4.92-2.61,9.84-5.59t10.39-5.95a21,21,0,0,1,5.06-2.05c1.55-.37,3.05.43,4.51,2.42a8.94,8.94,0,0,1-2,4.46,31.36,31.36,0,0,1-3.42,3.73,178.69,178.69,0,0,1-29.11,19.73,129.53,129.53,0,0,1-29.39,11.54q-14.49,3.72-21.59-3.35t-7.93-23.83q0-11.54.82-22.71c0-1-.68-1.17-2.05-.55a28.15,28.15,0,0,0-4.65,2.79q-2.6,1.86-5.46,4.28c-1.92,1.62-3.51,3-4.79,4.28q-7.65,7.45-15,15.26T570.87,352.7l-7.52,8q-3.69,3.9-7.52,7.26-5.48,5.22-9,6t-7.38-2.23q-3.55-3-4.1-6.33t2.19-9.68q4.37-10.05,9.29-20.1l9.84-20.1q4.65-9.3,9.57-18.43t9.84-18.42c1.09-2.24,2.23-4.53,3.42-6.89S581.89,266.83,583.17,264.1Z"/><path class="cls-1" d="M857.28,324.4a24.66,24.66,0,0,1-1.78,2.05,7.43,7.43,0,0,1-2,1.68,33.81,33.81,0,0,1-6,3q-3,1.13-5.47,1.87a549.31,549.31,0,0,0-64,20.28q-32.54,12.48-65.6,26.62c-2.92,1.24-5.74,2.36-8.48,3.35l-8.2,3q-8.21,3-13.94,1.67a12.85,12.85,0,0,1-8.47-5.58q-2.74-4.28-2.46-10.8a35.94,35.94,0,0,1,3.82-14q3.55-7.44,8.61-16.75a185,185,0,0,1,11.07-17.87,15.15,15.15,0,0,1,4.93-4.46c1.81-1,3.37-1.24,4.64-.75,3.65,1.25,5.42,2.67,5.33,4.28s-1.59,5-4.51,10.24A139,139,0,0,1,697.09,346a140.5,140.5,0,0,0-7.66,13.78c-2.18,5-2.55,8.37-1.09,10.23s4.37,2.18,8.75.94q5.74-1.86,11.62-4.29T720.6,362q29-11.53,57.13-22.15a439.38,439.38,0,0,1,55.49-16.94,82.88,82.88,0,0,1,11.89-2q5.88-.57,11.35-1.31a1.79,1.79,0,0,1,1.64,1.31C858.46,321.74,858.19,322.91,857.28,324.4ZM715.13,309.14c-2,.5-3-.37-3.14-2.61s.86-5.45,2.87-9.67q2.17-4.1,5-8.75t6.7-11.73q1.36-.74,4.65.75a34.54,34.54,0,0,1,4.92,2.6q4.37,3-2.46,11.91a21.88,21.88,0,0,1-2.6,3.54q-1.5,1.68-2.87,3.54a70.67,70.67,0,0,1-6.15,6.7A13.83,13.83,0,0,1,715.13,309.14Z"/><path class="cls-1" d="M849.89,304.67q1.65-4.46,3.83-10.42t6.83-16.75a375.46,375.46,0,0,1,17.23-40.21q9.84-19.72,20.22-39.83,16.13-29.78,32.94-58.44t36.22-55.47q7.11-9.67,14.08-18.8l14.08-18.42,3.14-4.28a30.4,30.4,0,0,1,3.42-3.91q10.38-11.91,18-15.27a15.58,15.58,0,0,1,14.76.75q15.32,7.81,6,36.85-2.19,6.7-5.06,13.78a115,115,0,0,1-6.7,13.77q-13.11,25.68-27.61,51.74T971,191q-15.86,25.13-32.8,48.76T902.92,284.2q-2.19,2.61-5,5.77t-6,6.51q-3.14,3.36-6.15,6.33c-2,2-3.73,3.72-5.19,5.21q-5.75,5.6-11.07,10.05T858.09,328.5a149,149,0,0,0-4.51,18.24,73.94,73.94,0,0,0-1.09,13.59,59.78,59.78,0,0,0,1.5,12.09q1.37,6,3.28,13.78,3.83,16,11.89,22.89t23.1,2.79a122.22,122.22,0,0,0,22.28-8.37,142.56,142.56,0,0,0,22.56-14q15.84-11.91,31.43-24.2t31.16-24.19q6.84-5.6,14.08-12.48t12.71-9.12c1.64,0,2.37.69,2.19,2.05a16.23,16.23,0,0,1-1.64,4.84,35.53,35.53,0,0,1-3.28,5.4,36.75,36.75,0,0,1-3,3.72,489.34,489.34,0,0,1-54.26,48.21,363.83,363.83,0,0,1-57.54,36.29q-16.14,8.58-29.39,8.19t-22.69-7.81q-9.42-7.45-14.07-21.78t-3.56-34.43q.27-4.1.68-8.19c.28-2.73.59-5.46,1-8.19.18-2.24.41-4.59.69-7.08s.58-5.33,1-8.56a50,50,0,0,1,1.37-6.33c.55-2.23,1.27-5.08,2.19-8.56S848.25,309.64,849.89,304.67Zm13.94,1.49a51,51,0,0,0,8.48-6.51q4.63-4.27,9.29-9.31t8.89-10q4.23-5,7.24-8.38a408.61,408.61,0,0,0,25.42-32q12.3-17.11,24.06-35.18t23.1-36.67l22-36.1a530.91,530.91,0,0,0,35.81-68.87,63.12,63.12,0,0,0,4.65-13.59q1.37-6.51-1.64-10.61-5.75-7.82-20.5,8.93-7.38,8.58-14.63,17.5T981.93,83.55a686,686,0,0,0-41.83,63.29q-19.14,32.76-36.63,67-7.94,14.9-14.76,29.78T875,273.78q-.56,1.49-2.32,6t-3.56,9.68l-3.41,10A45.62,45.62,0,0,0,863.83,306.16Z"/><path class="cls-1" d="M1020.47,304.67q1.63-4.46,3.83-10.42t6.83-16.75a375.38,375.38,0,0,1,17.22-40.21q9.84-19.72,20.23-39.83,16.13-29.78,32.94-58.44t36.22-55.47q7.11-9.67,14.08-18.8l14.08-18.42,3.14-4.28a30.4,30.4,0,0,1,3.42-3.91q10.38-11.91,18-15.27a15.58,15.58,0,0,1,14.76.75q15.3,7.81,6,36.85-2.19,6.7-5,13.78a116.53,116.53,0,0,1-6.7,13.77q-13.12,25.68-27.61,51.74T1141.57,191q-15.85,25.13-32.81,48.76T1073.5,284.2c-1.46,1.74-3.14,3.66-5.06,5.77s-3.92,4.28-6,6.51-4.15,4.35-6.15,6.33-3.74,3.72-5.2,5.21q-5.73,5.6-11.07,10.05t-11.34,10.43a147.2,147.2,0,0,0-4.51,18.24,73.07,73.07,0,0,0-1.09,13.59,58.39,58.39,0,0,0,1.5,12.09q1.37,6,3.28,13.78,3.83,16,11.89,22.89t23.1,2.79a122.22,122.22,0,0,0,22.28-8.37,142,142,0,0,0,22.55-14q15.86-11.91,31.44-24.2t31.16-24.19q6.82-5.6,14.08-12.48t12.71-9.12c1.64,0,2.37.69,2.19,2.05a16.52,16.52,0,0,1-1.64,4.84,36.36,36.36,0,0,1-3.28,5.4,38.21,38.21,0,0,1-3,3.72,489.34,489.34,0,0,1-54.26,48.21,363.91,363.91,0,0,1-57.55,36.29q-16.12,8.58-29.38,8.19t-22.69-7.81q-9.44-7.45-14.08-21.78t-3.55-34.43q.27-4.1.68-8.19t1-8.19c.18-2.24.41-4.59.68-7.08s.59-5.33,1-8.56a49.62,49.62,0,0,1,1.36-6.33q.82-3.34,2.19-8.56T1020.47,304.67Zm13.94,1.49a50.93,50.93,0,0,0,8.47-6.51q4.65-4.27,9.3-9.31t8.88-10q4.25-5,7.25-8.38,13.11-14.88,25.42-32t24-35.18q11.76-18,23.1-36.67l22-36.1a533.4,533.4,0,0,0,35.81-68.87,63.67,63.67,0,0,0,4.65-13.59q1.37-6.51-1.64-10.61-5.74-7.82-20.51,8.93-7.38,8.58-14.62,17.5T1152.5,83.55a683.86,683.86,0,0,0-41.82,63.29q-19.14,32.76-36.63,67-7.93,14.9-14.76,29.78t-13.67,30.16c-.37,1-1.14,3-2.33,6s-2.37,6.21-3.55,9.68-2.32,6.83-3.42,10A46.5,46.5,0,0,0,1034.41,306.16Z"/><path class="cls-1" d="M1201.7,303.93a3.33,3.33,0,0,1,3.15-.75,8.28,8.28,0,0,1,3.69,1.68,7.91,7.91,0,0,1,2.46,3.54,7.5,7.5,0,0,1-.28,5.21,70.77,70.77,0,0,1-5.33,10.23,73,73,0,0,0-5.33,10.24,140.6,140.6,0,0,0-7.38,19.36q-2.73,9.31-.82,16.75,1.1,4.47,6,3.17t9.84-8q6-8.55,11.2-17.31t11.49-18.42q6.28-2.61,10-1.68t2.6,7.63q-1.1,7.08.27,11a8.83,8.83,0,0,0,4.51,5.4c2.1,1,4.83,1.18,8.21.56a56.91,56.91,0,0,0,11.34-3.54q12.3-4.83,24.74-10.23t25.28-10.61c2-.75,4.42-1.74,7.25-3s5.51-2.29,8.06-3.17,4.74-1.54,6.56-2,2.92-.5,3.28,0,.28,1.24-.27,2.23a10.44,10.44,0,0,1-2.32,2.79l-3,2.61a8.2,8.2,0,0,1-2.6,1.67q-5.19,3.36-10.52,6.52t-10.25,6.14q-8.76,4.1-17.36,8t-17.09,8q-14.49,6.33-26,7.26t-19.69-4.29a3.13,3.13,0,0,0-2.18-.74,9.16,9.16,0,0,1-3.28-.74q-3,3.35-5.88,6.88c-1.91,2.36-3.88,4.66-5.88,6.89q-16.68,19-29,14.89-12.3-3.72-10.66-21.22,1.37-14.14,8.48-30.15A364.72,364.72,0,0,1,1201.7,303.93Z"/></g></svg>